<svg xmlns="http://www.w3.org/2000/svg" viewBox="0 0 512 512" width="512" height="512">
  <defs>
    <linearGradient id="bgGrad" x1="0%" y1="0%" x2="100%" y2="100%">
      <stop offset="0%" stop-color="#0F172A" />
      <stop offset="100%" stop-color="#1E1B4B" />
    </linearGradient>

    <linearGradient id="brandGrad" x1="80" y1="128" x2="432" y2="440" gradientUnits="userSpaceOnUse">
      <stop offset="0%" stop-color="#6366F1" />   <stop offset="50%" stop-color="#C026D3" />   <stop offset="100%" stop-color="#F43F5E" />  </linearGradient>

    <filter id="shadow" x="-10%" y="-10%" width="130%" height="130%">
      <feDropShadow dx="0" dy="16" stdDeviation="20" flood-color="#C026D3" flood-opacity="0.35" />
    </filter>
  </defs>

  <rect width="512" height="512" rx="116" fill="url(#bgGrad)" stroke="#334155" stroke-width="2" />

  <g filter="url(#shadow)">
    <rect x="80" y="128" width="352" height="240" rx="64" fill="url(#brandGrad)" />
    <polygon points="140,350 140,430 210,366" fill="url(#brandGrad)" />
  </g>

  <g fill="white" stroke="white" stroke-linecap="round" stroke-linejoin="round">
    
    <rect x="136" y="228" width="16" height="40" rx="8" stroke="none" />
    <rect x="168" y="198" width="16" height="100" rx="8" stroke="none" />
    <rect x="200" y="218" width="16" height="60" rx="8" stroke="none" />

    <path d="M 244 236 L 256 248 L 244 260" stroke-width="6" fill="none" opacity="0.6" />

    <path d="M 290 254 L 314 278 L 360 218" stroke-width="20" fill="none" />

    <path d="M 366 160 Q 366 180 386 180 Q 366 180 366 200 Q 366 180 346 180 Q 366 180 366 160 Z" fill="white" stroke="none" />
    <path d="M 276 280 Q 276 292 288 292 Q 276 292 276 304 Q 276 292 264 292 Q 276 292 276 280 Z" fill="white" stroke="none" opacity="0.8" />
    
  </g>
</svg>
